# xmcd CD database file
#
# Track frame offsets:
#	225
#	7229
#	18978
#	29619
#	45696
#	57149
#	72829
#	87190
#	100271
#	109993
#	121423
#	133203
#	140650
#	156557
#	167158
#	184267
#	191753
#	206847
#	221701
#	234460
#	249848
#	260849
#
# Disc length: 3569 seconds
#
# Revision: 1
# Processed by: cddbd v1.5.2PL0 Copyright (c) Steve Scherf et al.
# Submitted via: CDex 1.51
#
DISCID=550dee16
DTITLE=Benny Carter, Dinah Shore, W. C. Handy - Chamber Music Society Of Lower Basin Street
DYEAR=1940
DGENRE=Jazz
TTITLE0=Introduction
TTITLE1=When My Sugar Walks Down The Street
TTITLE2=Down Home Rag
TTITLE3=Star Dust
TTITLE4=My Gal Sal
TTITLE5=Charles Edward Smith
TTITLE6=Aunt Hagar's Children Blues
TTITLE7=The Sheik Of Araby
TTITLE8=Honeysuckle Rose
TTITLE9=Farewell Blues
TTITLE10=Basin Street Blues
TTITLE11=Introduction
TTITLE12=Beale Street Blues
TTITLE13=Loveless Love
TTITLE14=Heist The Window, Noah
TTITLE15=St. Louis Blues
TTITLE16=W.C. Handy
TTITLE17=Yellow Dog Blues
TTITLE18=Memphis Blues
TTITLE19=Sounding Brass And Tinkling Cymbals
TTITLE20=Aunt Hagar's Children Blues
TTITLE21=Basin Street Blues
EXTD=YEAR: 1940
EXTT0=
EXTT1=
EXTT2=
EXTT3=
EXTT4=
EXTT5=
EXTT6=
EXTT7=
EXTT8=
EXTT9=
EXTT10=
EXTT11=
EXTT12=
EXTT13=
EXTT14=
EXTT15=
EXTT16=
EXTT17=
EXTT18=
EXTT19=
EXTT20=
EXTT21=
PLAYORDER=
